<svg xmlns="http://www.w3.org/2000/svg" xmlns:xlink="http://www.w3.org/1999/xlink" width="2000" zoomAndPan="magnify" viewBox="0 0 1500 449.999984" height="600" preserveAspectRatio="xMidYMid meet" version="1.0"><defs><g/></defs><g fill="#8c52ff" fill-opacity="1"><g transform="translate(123.075668, 301.63288)"><g><path d="M 11.5 -159.875 L 34.59375 -159.875 L 69.65625 -98.453125 L 104.84375 -159.875 L 126.671875 -159.875 L 81.265625 -86.265625 L 132.125 0 L 109.015625 0 L 69.203125 -72.21875 L 28.90625 0 L 7.203125 0 L 57.359375 -85.21875 Z M 11.5 -159.875 "/></g></g></g><g fill="#8c52ff" fill-opacity="1"><g transform="translate(262.386653, 301.63288)"><g><path d="M 85.21875 -122.25 L 85.21875 -15.4375 L 119.703125 -15.4375 L 119.703125 0 L 27.984375 0 L 27.984375 -15.4375 L 65.71875 -15.4375 L 65.71875 -106.8125 L 29.140625 -106.8125 L 29.140625 -122.25 Z M 69.65625 -179.5 C 73.988281 -179.5 77.453125 -178.179688 80.046875 -175.546875 C 82.640625 -172.910156 83.9375 -169.695312 83.9375 -165.90625 C 83.9375 -161.957031 82.640625 -158.648438 80.046875 -155.984375 C 77.453125 -153.316406 73.988281 -151.984375 69.65625 -151.984375 C 65.550781 -151.984375 62.179688 -153.316406 59.546875 -155.984375 C 56.921875 -158.648438 55.609375 -161.957031 55.609375 -165.90625 C 55.609375 -169.695312 56.921875 -172.910156 59.546875 -175.546875 C 62.179688 -178.179688 65.550781 -179.5 69.65625 -179.5 Z M 69.65625 -179.5 "/></g></g></g><g fill="#8c52ff" fill-opacity="1"><g transform="translate(401.697638, 301.63288)"><g><path d="M 120.390625 -6.15625 C 116.210938 -3.363281 111.144531 -1.195312 105.1875 0.34375 C 99.226562 1.894531 93.382812 2.671875 87.65625 2.671875 C 74.5 2.671875 64.359375 -0.769531 57.234375 -7.65625 C 50.117188 -14.550781 46.5625 -23.414062 46.5625 -34.25 L 46.5625 -107.15625 L 18.453125 -107.15625 L 18.453125 -122.25 L 46.5625 -122.25 L 46.5625 -150 L 66.0625 -152.328125 L 66.0625 -122.25 L 108.328125 -122.25 L 106 -107.15625 L 66.0625 -107.15625 L 66.0625 -34.484375 C 66.0625 -27.671875 67.859375 -22.484375 71.453125 -18.921875 C 75.054688 -15.359375 81.035156 -13.578125 89.390625 -13.578125 C 93.960938 -13.578125 98.179688 -14.117188 102.046875 -15.203125 C 105.921875 -16.285156 109.519531 -17.679688 112.84375 -19.390625 Z M 120.390625 -6.15625 "/></g></g></g><g fill="#8c52ff" fill-opacity="1"><g transform="translate(541.008624, 301.63288)"><g><path d="M 69.890625 -124.8125 C 81.421875 -124.8125 91.078125 -122.195312 98.859375 -116.96875 C 106.640625 -111.75 112.484375 -104.378906 116.390625 -94.859375 C 120.296875 -85.335938 122.25 -74.113281 122.25 -61.1875 C 122.25 -48.726562 120.238281 -37.695312 116.21875 -28.09375 C 112.195312 -18.5 106.296875 -10.972656 98.515625 -5.515625 C 90.734375 -0.0546875 81.113281 2.671875 69.65625 2.671875 C 58.207031 2.671875 48.570312 0.0390625 40.75 -5.21875 C 32.9375 -10.488281 27.035156 -17.898438 23.046875 -27.453125 C 19.054688 -37.015625 17.0625 -48.179688 17.0625 -60.953125 C 17.0625 -73.566406 19.070312 -84.671875 23.09375 -94.265625 C 27.125 -103.867188 33.066406 -111.359375 40.921875 -116.734375 C 48.773438 -122.117188 58.429688 -124.8125 69.890625 -124.8125 Z M 69.890625 -108.90625 C 59.367188 -108.90625 51.414062 -105.015625 46.03125 -97.234375 C 40.65625 -89.453125 37.96875 -77.359375 37.96875 -60.953125 C 37.96875 -44.847656 40.617188 -32.890625 45.921875 -25.078125 C 51.222656 -17.265625 59.132812 -13.359375 69.65625 -13.359375 C 80.1875 -13.359375 88.101562 -17.265625 93.40625 -25.078125 C 98.707031 -32.890625 101.359375 -44.925781 101.359375 -61.1875 C 101.359375 -77.4375 98.722656 -89.453125 93.453125 -97.234375 C 88.191406 -105.015625 80.335938 -108.90625 69.890625 -108.90625 Z M 69.890625 -108.90625 "/></g></g></g><g fill="#8c52ff" fill-opacity="1"><g transform="translate(680.319609, 301.63288)"><g><path d="M 23.34375 0 L 23.34375 -122.25 L 39.9375 -122.25 L 41.453125 -105.296875 C 46.398438 -111.566406 52.609375 -116.382812 60.078125 -119.75 C 67.546875 -123.125 74.800781 -124.8125 81.84375 -124.8125 C 93.84375 -124.8125 102.570312 -121.632812 108.03125 -115.28125 C 113.488281 -108.9375 116.21875 -100.113281 116.21875 -88.8125 L 116.21875 0 L 96.71875 0 L 96.71875 -74.421875 C 96.71875 -82.773438 96.25 -89.523438 95.3125 -94.671875 C 94.382812 -99.828125 92.453125 -103.582031 89.515625 -105.9375 C 86.578125 -108.300781 82.007812 -109.484375 75.8125 -109.484375 C 71.007812 -109.484375 66.5 -108.4375 62.28125 -106.34375 C 58.0625 -104.257812 54.304688 -101.648438 51.015625 -98.515625 C 47.734375 -95.378906 45.007812 -92.222656 42.84375 -89.046875 L 42.84375 0 Z M 23.34375 0 "/></g></g></g><g fill="#8c52ff" fill-opacity="1"><g transform="translate(819.630568, 301.63288)"><g><path d="M 85.21875 -122.25 L 85.21875 -15.4375 L 119.703125 -15.4375 L 119.703125 0 L 27.984375 0 L 27.984375 -15.4375 L 65.71875 -15.4375 L 65.71875 -106.8125 L 29.140625 -106.8125 L 29.140625 -122.25 Z M 69.65625 -179.5 C 73.988281 -179.5 77.453125 -178.179688 80.046875 -175.546875 C 82.640625 -172.910156 83.9375 -169.695312 83.9375 -165.90625 C 83.9375 -161.957031 82.640625 -158.648438 80.046875 -155.984375 C 77.453125 -153.316406 73.988281 -151.984375 69.65625 -151.984375 C 65.550781 -151.984375 62.179688 -153.316406 59.546875 -155.984375 C 56.921875 -158.648438 55.609375 -161.957031 55.609375 -165.90625 C 55.609375 -169.695312 56.921875 -172.910156 59.546875 -175.546875 C 62.179688 -178.179688 65.550781 -179.5 69.65625 -179.5 Z M 69.65625 -179.5 "/></g></g></g><g fill="#8c52ff" fill-opacity="1"><g transform="translate(958.941527, 301.63288)"><g><path d="M 122.71875 -135.265625 L 128.75 -116.921875 C 123.570312 -115.285156 118.039062 -114.273438 112.15625 -113.890625 C 106.269531 -113.503906 99.882812 -113.3125 93 -113.3125 C 100.039062 -110.0625 105.34375 -105.863281 108.90625 -100.71875 C 112.46875 -95.570312 114.25 -89.515625 114.25 -82.546875 C 114.25 -74.492188 112.425781 -67.332031 108.78125 -61.0625 C 105.144531 -54.800781 99.898438 -49.890625 93.046875 -46.328125 C 86.203125 -42.765625 77.941406 -40.984375 68.265625 -40.984375 C 64.160156 -40.984375 60.734375 -41.175781 57.984375 -41.5625 C 55.242188 -41.945312 52.597656 -42.53125 50.046875 -43.3125 C 48.179688 -42.070312 46.648438 -40.367188 45.453125 -38.203125 C 44.253906 -36.035156 43.65625 -33.789062 43.65625 -31.46875 C 43.65625 -28.519531 44.816406 -26.078125 47.140625 -24.140625 C 49.460938 -22.210938 53.757812 -21.25 60.03125 -21.25 L 82.078125 -21.25 C 90.285156 -21.25 97.660156 -19.773438 104.203125 -16.828125 C 110.742188 -13.890625 115.890625 -9.941406 119.640625 -4.984375 C 123.398438 -0.0351562 125.28125 5.609375 125.28125 11.953125 C 125.28125 23.953125 120.1875 33.164062 110 39.59375 C 99.820312 46.019531 85.445312 49.234375 66.875 49.234375 C 53.875 49.234375 43.617188 47.894531 36.109375 45.21875 C 28.597656 42.550781 23.234375 38.488281 20.015625 33.03125 C 16.804688 27.570312 15.203125 20.703125 15.203125 12.421875 L 32.859375 12.421875 C 32.859375 17.140625 33.785156 21.046875 35.640625 24.140625 C 37.492188 27.242188 40.859375 29.550781 45.734375 31.0625 C 50.617188 32.570312 57.628906 33.328125 66.765625 33.328125 C 75.734375 33.328125 83.0625 32.570312 88.75 31.0625 C 94.445312 29.550781 98.664062 27.304688 101.40625 24.328125 C 104.15625 21.347656 105.53125 17.648438 105.53125 13.234375 C 105.53125 7.429688 102.898438 3.054688 97.640625 0.109375 C 92.378906 -2.828125 85.800781 -4.296875 77.90625 -4.296875 L 56.078125 -4.296875 C 45.546875 -4.296875 37.785156 -6.617188 32.796875 -11.265625 C 27.804688 -15.910156 25.3125 -21.25 25.3125 -27.28125 C 25.3125 -31.226562 26.453125 -35.054688 28.734375 -38.765625 C 31.015625 -42.484375 34.363281 -45.773438 38.78125 -48.640625 C 31.738281 -52.359375 26.550781 -56.960938 23.21875 -62.453125 C 19.894531 -67.953125 18.234375 -74.613281 18.234375 -82.4375 C 18.234375 -90.71875 20.28125 -98.050781 24.375 -104.4375 C 28.476562 -110.820312 34.207031 -115.832031 41.5625 -119.46875 C 48.914062 -123.101562 57.390625 -124.921875 66.984375 -124.921875 C 77.285156 -125.003906 85.644531 -125.453125 92.0625 -126.265625 C 98.488281 -127.078125 104.003906 -128.253906 108.609375 -129.796875 C 113.210938 -131.347656 117.914062 -133.171875 122.71875 -135.265625 Z M 66.984375 -110.640625 C 57.160156 -110.640625 49.90625 -107.988281 45.21875 -102.6875 C 40.539062 -97.382812 38.203125 -90.632812 38.203125 -82.4375 C 38.203125 -74.15625 40.597656 -67.34375 45.390625 -62 C 50.191406 -56.65625 57.546875 -53.984375 67.453125 -53.984375 C 76.117188 -53.984375 82.71875 -56.5 87.25 -61.53125 C 91.78125 -66.5625 94.046875 -73.566406 94.046875 -82.546875 C 94.046875 -91.753906 91.78125 -98.738281 87.25 -103.5 C 82.71875 -108.257812 75.960938 -110.640625 66.984375 -110.640625 Z M 66.984375 -110.640625 "/></g></g></g><g fill="#8c52ff" fill-opacity="1"><g transform="translate(1098.252486, 301.63288)"><g><path d="M 42.84375 -173.34375 L 42.84375 -105.53125 C 47.644531 -111.957031 53.546875 -116.773438 60.546875 -119.984375 C 67.546875 -123.203125 74.644531 -124.8125 81.84375 -124.8125 C 93.769531 -124.8125 102.476562 -121.632812 107.96875 -115.28125 C 113.46875 -108.9375 116.21875 -100.113281 116.21875 -88.8125 L 116.21875 0 L 96.71875 0 L 96.71875 -88.359375 C 96.71875 -95.710938 95.015625 -101.070312 91.609375 -104.4375 C 88.203125 -107.800781 82.859375 -109.484375 75.578125 -109.484375 C 70.929688 -109.484375 66.519531 -108.4375 62.34375 -106.34375 C 58.164062 -104.257812 54.410156 -101.664062 51.078125 -98.5625 C 47.753906 -95.46875 45.007812 -92.296875 42.84375 -89.046875 L 42.84375 0 L 23.34375 0 L 23.34375 -171.25 Z M 42.84375 -173.34375 "/></g></g></g><g fill="#8c52ff" fill-opacity="1"><g transform="translate(1237.563445, 301.63288)"><g><path d="M 120.390625 -6.15625 C 116.210938 -3.363281 111.144531 -1.195312 105.1875 0.34375 C 99.226562 1.894531 93.382812 2.671875 87.65625 2.671875 C 74.5 2.671875 64.359375 -0.769531 57.234375 -7.65625 C 50.117188 -14.550781 46.5625 -23.414062 46.5625 -34.25 L 46.5625 -107.15625 L 18.453125 -107.15625 L 18.453125 -122.25 L 46.5625 -122.25 L 46.5625 -150 L 66.0625 -152.328125 L 66.0625 -122.25 L 108.328125 -122.25 L 106 -107.15625 L 66.0625 -107.15625 L 66.0625 -34.484375 C 66.0625 -27.671875 67.859375 -22.484375 71.453125 -18.921875 C 75.054688 -15.359375 81.035156 -13.578125 89.390625 -13.578125 C 93.960938 -13.578125 98.179688 -14.117188 102.046875 -15.203125 C 105.921875 -16.285156 109.519531 -17.679688 112.84375 -19.390625 Z M 120.390625 -6.15625 "/></g></g></g></svg>